<svg xmlns="http://www.w3.org/2000/svg" xmlns:xlink="http://www.w3.org/1999/xlink" viewBox="0 0 3370.39 2383.94" xmlns:v="https://vecta.io/nano"><path d="M2636.45 808.47c26.11-137.49-29.64-133.53 86.96-215.09 92.24-64.52 208.66-94.54 316.53-112.86 14.52-2.47 29.23-4.57 42.78-3.4 12.13 1.05 22.92 4.73 32.55 9.49 72.12 35.66 72.77 122.04 88.94 193.96 9.49 42.23 26.09 81.96 49.28 117.95 22.11 34.31 23.35 60.15 24.2 102.82.75 37.78-34.39 79.62-79.29 103.67-52.82 28.29-71.11 15.86-139.18 62.44-15.9 10.88-112.85 131.89-203.83 115.91-80.21-14.09-55.73-120.95-111.48-163.9-24.55-18.91-101.14-63.13-114.17-89.54-19.38-39.27 2.09-97.12 6.71-121.45z" fill="#e1f0df"/><path d="M1443.35 667.84c-104.11-95.07-140.61-257.02-87.36-387.56 12.97-31.79 31.25-62.29 58.13-83.65 46.4-36.88 111.14-41.07 169.74-32.18 58.6 8.9 115.21 29.13 174.15 35.39 93.63 9.95 187.81-15.82 281.85-10.89 94.03 4.93 198.84 56.59 213.76 149.56 5.35 33.33-1.76 67.27-8.84 100.28l-45.94 214.24c-6.07 28.29-12.56 57.55-29.81 80.78-56.76 76.43-185.85 43.3-260.06 102.92-10.83 8.7-43.32 15.97-76.57 21.41-48.95 8-98.89-4.55-138.71-34.12-21.41-15.9-44.43-29.63-68.7-40.96-51.71-24.13-125.21-63.71-181.63-115.23z" fill="#d8ecd8"/><path d="M1255.73 1901.9c-33.97-56.95-104.9-75.92-159.03-113.47-35.66-24.74-68-59.94-110.69-65.04-17.93-2.14-35.89 1.42-53.76 3.58-14.05 1.7-28.21 2.53-42.16 4.87-57.51 9.64-111.6 48.55-130.14 104.62-4.69 14.19-7.08 29.08-9 43.96-4.29 33.36-6.26 67.05-5.89 100.74.22 20.18 1.29 40.47 5.63 60.22 4.19 19.08 11.37 37.37 18.52 55.55 21.66 55.11 45.18 112.83 90.84 149.98 19.65 15.98 42.47 27.3 65.21 38.17 18.73 8.95 37.7 17.74 57.77 22.67 20.26 4.98 41.42 5.92 61.93 2.75 36.2-5.59 71.08-23.82 107.54-19.27 14.65 1.83 29.06 7.34 43.75 6.2 22.31-1.72 40.98-18.89 51.08-39.08 10.09-20.19 13.12-43.23 16.01-65.76l16.18-126.39c3.67-28.66 7.34-57.64 4.33-86.47-3.84-36.72-18.79-72.3-42.32-100.68" fill="#d4ece0"/><path d="M1594.3 1531.29c-18.42 26.65-29.7 58.38-38.52 90.38-19.47 70.64-28.02 144.89-25.17 218.62.77 19.81 2.59 40.42 12.1 57.28 15.53 27.53 46.86 37.87 75.46 45.95 153.51 43.37 314.79 83.83 468.95 43.35 27.81-7.3 55.41-17.38 79.33-34.56 19.89-14.29 36.78-33.17 51.34-53.79 38.1-53.97 60.71-120.98 63.33-189.16 1.12-29.17-1.44-58.98-11.71-85.92-16.88-44.31-53.29-76.91-93.2-96.7-39.91-19.8-84.3-60.45-127.44-68.81-79.28-15.36-137.53-10.52-216.11-29.02-124.5-29.31-219.95 75.73-238.37 102.38z" fill="#e1f0df"/><path d="M2290.99 668.47c112.83-84.53 235.57-33.92 353.87 42.77 28.81 18.67 134.12 133.33 114.44 189.24s-50.12 107.75-67.28 164.49c-27.25 90.13-19.51 187.47-41.91 278.92-22.4 91.46-92.71 184.78-186.84 182.08-33.75-.97-65.76-14.29-96.87-27.4l-201.9-85.12c-26.66-11.24-54.2-23.08-73.8-44.37-64.49-70.03-7.84-190.66-52.57-274.7-6.53-12.27-7.61-45.54-6.74-79.22 1.28-49.58 22.93-96.3 59.41-129.91 19.62-18.07 37.4-38.11 53.06-59.85 33.36-46.3 85.96-111.12 147.1-156.93z" fill="#d4ece0"/><path d="M590.51 1232.32c79.27 81.93 124.56 190.56 130.48 304.41 4.21 80.99-7.5 160.27-55.44 223.79-45.28 59.99-116 95.28-167.94 149.6-75.4 78.84-152.64 264.69-404.3 215.45-165.55-32.39-319.62-192.76-286.9-326.83 32.72-134.08 93.45-263.97 92.58-401.97-.29-45.89-7.46-91.9-2.42-137.51s25.17-92.91 65.21-115.34c23.92-13.4 52.01-16.44 79.46-18.29 83.38-5.61 166.96-7.5 250.51-6.19 58.6.91 118.77 3.36 173.08 25.58 48.53 19.85 89.92 50.35 125.69 87.31z" fill="#e1f0df"/><path d="M2923.23 1351.26c107.18-40.68 244.03-9.68 327.49 74.17 20.33 20.42 37.93 44.17 45.7 70.83 13.4 46.02-4.38 93.6-30.27 132.2s-13.1 125.77-37.07 165.54c-38.08 63.18-95.55 85.33-129.88 150.55-34.34 65.22-108.24 121.68-184.84 99.58-27.47-7.92-51.35-24.93-74.53-41.58l-150.44-108.1c-19.87-14.28-40.34-29.2-52.67-49.66-40.56-67.31 26.92-147.58 4.99-221.41-3.2-10.78 1.74-36.47 8.34-62.06 9.72-37.67 35.62-68.82 71.37-86.77 19.22-9.65 37.29-21.21 53.92-34.51 35.42-28.33 89.83-66.74 147.9-88.79zM440.29 153.97c-90.82 20.26-147.58 107.91-221.57 164.33-48.75 37.17-109.93 65.08-135.69 120.71-10.82 23.36-14.07 49.36-19.15 74.59-3.99 19.83-9.18 39.44-12.27 59.43-12.76 82.43 14.92 173.51 81.22 224.11 16.78 12.81 35.51 22.81 54.44 32.16 42.44 20.96 86.36 38.93 131.32 53.73 26.92 8.86 54.38 16.62 82.56 19.7 27.23 2.97 54.73 1.53 82.09.09 82.91-4.38 170.1-10.09 239.79-55.21 29.98-19.41 55.18-45.25 79.74-71.18 20.22-21.35 40.34-43.11 55.83-68.12 15.63-25.23 26.29-53.53 31.19-82.8 8.66-51.67-.07-107.28 22.2-154.71 8.95-19.06 22.68-36.11 27.7-56.56 7.63-31.06-6.89-64.2-29.25-87.06s-51.63-37.43-80.31-51.58l-160.84-79.33c-36.47-17.99-73.37-36.13-113.03-45.13-50.53-11.46-104.49-7.31-152.67 11.73" fill="#d4ece0"/><g fill="#a3d8c3"><use xlink:href="#B"/><use xlink:href="#B" x="28.71" y="13.8"/></g><g fill="#8ccc95"><path d="M624.7 1512.7c16.22-6.45 34.39-7.1 51.11-2.13 8.4 2.49 16.2 6.43 23.29 11.57 7.52 5.45 14.46 11.86 22.95 15.82 13.5 6.29 28.43 6.02 42.8 3.43s29.12-7.57 43.8-10.87c13.73-3.09 28.31-4.87 41.85-.28 1.57.53 3.1 1.14 4.59 1.84 1.22.57 2.69.34 3.42-.9.63-1.08.33-2.85-.9-3.42-13.68-6.36-28.7-6.14-43.27-3.5s-29.46 7.69-44.32 10.99c-13.75 3.06-28.33 4.72-41.82-.11-8.45-3.02-15.41-8.77-22.42-14.18s-15.01-10.35-23.7-13.56c-16.72-6.18-35.59-6.83-52.65-1.65a77.98 77.98 0 0 0-6.07 2.13c-1.25.5-2.13 1.67-1.75 3.08.33 1.19 1.81 2.25 3.08 1.75h0zm-18 28.79c16.22-6.45 34.39-7.1 51.11-2.13 8.4 2.49 16.2 6.43 23.29 11.57 7.52 5.45 14.46 11.86 22.95 15.82 13.5 6.29 28.43 6.02 42.8 3.43s29.12-7.57 43.8-10.87c13.73-3.09 28.31-4.87 41.85-.28 1.57.53 3.1 1.14 4.59 1.84 1.22.57 2.69.34 3.42-.9.63-1.08.33-2.85-.9-3.42-13.68-6.36-28.7-6.14-43.27-3.5-15 2.71-29.46 7.69-44.32 10.99-13.75 3.06-28.33 4.72-41.82-.11-8.45-3.02-15.41-8.77-22.42-14.18s-15.01-10.35-23.7-13.56c-16.72-6.18-35.59-6.83-52.65-1.65a77.98 77.98 0 0 0-6.07 2.13c-1.25.5-2.13 1.67-1.75 3.08.33 1.19 1.81 2.25 3.08 1.75h0z"/><use xlink:href="#C"/><use xlink:href="#C" x="22.34" y="-24.33"/></g><path d="M864.69 824.04c81.89-79.31 190.51-124.64 304.35-130.62 80.99-4.25 160.27 7.43 223.81 55.34 60.01 45.25 95.34 115.95 149.67 167.87 78.87 75.37 193.24 107.06 266.58 187.81 52.58 57.89 78.77 136.76 81.22 214.93 2.44 77.78-19.08 158.66-71.49 216.18-92.96 102.01-253.29 104.99-387.38 72.32-134.09-32.66-264.01-93.33-402.02-92.4-45.89.31-91.89 7.5-137.51 2.48s-92.92-25.13-115.37-65.16c-13.41-23.92-16.46-52-18.32-79.46-5.65-83.37-7.57-166.96-6.31-250.51.89-58.6 3.31-118.77 25.5-173.09 19.83-48.54 50.31-89.94 87.26-125.72z" fill="#c7e4c6"/><defs ><path id="B" d="M2092.19 284.7c-5.05-8.68.86-18.95 6.9-25.52 7.55-8.2 17.8-13 27.09-18.88 4.74-3 9.39-6.28 13.34-10.28 4.18-4.22 7.31-9.17 9.54-14.66s3.52-11.54 4.52-17.48a271.94 271.94 0 0 0 2.66-20.71c1.39-15.57 1.36-31.26-.1-46.83-.13-1.34-1.06-2.5-2.5-2.5-1.25 0-2.63 1.15-2.5 2.5a256.37 256.37 0 0 1 .5 41.93 256.31 256.31 0 0 1-2.32 20.86c-.94 6.12-2.01 12.26-4.03 18.13-1.88 5.47-4.75 10.5-8.76 14.68-3.79 3.95-8.25 7.13-12.86 10.04-9.48 6-19.91 10.96-27.7 19.24-7.8 8.28-14.49 20.99-8.08 32 1.62 2.78 5.94.27 4.32-2.52h0z"/><path id="C" d="M3216.77 1065.95c-5.34 1.16-10.68.97-15.77-.99-4.66-1.79-8.87-5.34-11.85-9.57-3.86-5.48-5.85-11.76-7.24-18.25-1.49-6.96-2.46-14.36-6.06-20.63-2.29-3.99-5.69-7.33-9.82-9.38s-8.57-2.9-13.1-3.27c-9.38-.76-18.77.67-28.15.42-1.13-.03-2.27-.08-3.4-.17-.53-.04-1.07-.09-1.6-.15l-.73-.09c-.42-.05.35.05-.06 0-.16-.02-.32-.05-.48-.07-2.09-.33-4.16-.82-6.15-1.55a12.15 12.15 0 0 1-.64-.25c-.37-.15.33.15-.04-.01-.1-.05-.21-.09-.31-.14-.48-.22-.96-.45-1.43-.71a21.57 21.57 0 0 1-2.6-1.66c-.23-.17.01.01.05.04-.12-.1-.24-.19-.36-.29-.18-.15-.36-.3-.53-.46-.41-.37-.81-.75-1.19-1.15s-.7-.78-1.04-1.18c-.31-.37-.08-.08-.29-.38-.17-.24-.35-.48-.51-.73-.68-1-1.26-2.05-1.79-3.13-.59-1.21-2.32-1.54-3.42-.9-1.24.72-1.49 2.2-.9 3.42 2.1 4.29 5.31 7.98 9.46 10.4s8.52 3.36 13.07 3.86c9.51 1.03 19.09-.45 28.62-.31 1.18.02 2.36.06 3.54.14l1.61.13.86.09.64.08a43.35 43.35 0 0 1 3.08.57 28.85 28.85 0 0 1 3.02.86l.75.27c.11.04.79.32.36.13.49.21.97.43 1.44.68.91.47 1.79 1 2.62 1.59.1.07.65.49.32.23.21.17.42.34.62.52a25.25 25.25 0 0 1 1.2 1.12c.83.84 1.36 1.5 1.87 2.22 3.88 5.56 4.89 12.57 6.22 19.07 1.43 6.96 3.28 13.84 7.09 19.92 3.12 4.98 7.4 9.34 12.65 12.06s11.15 3.77 16.98 3.19c1.59-.16 3.18-.41 4.74-.75 3.14-.68 1.81-5.51-1.33-4.82h0z"/></defs></svg>